<svg id="svgQrWrapper" viewBox="0 0 300 300" xmlns="http://www.w3.org/2000/svg" xmlns:xlink="http://www.w3.org/1999/xlink" style="width: 100%; height: 100%; background-color: rgb(255, 255, 255);"><svg fill="none" xmlns="http://www.w3.org/2000/svg" width="300" height="300" viewBox="0 0 300 300"><g transform="translate(10, 15)"><path d="M77.8839 104.403C86.1528 98.8825 111.6 73.7519 120.726 76.5037C123.217 79.2462 121.895 87.2101 118.153 99.6211C113.474 115.135 92.1491 141.558 74.8831 149.293C57.6171 157.029 32.9818 157.565 27.4335 142.95C22.9948 131.257 27.7309 116.194 35.8117 113.884C45.9802 110.977 68.6386 110.575 77.8839 104.403Z" fill="#AA80F9"/><path d="M46.2672 134.868C46.793 140.004 49.0001 148.349 45.7452 148.303C41.9449 148.249 37.5488 142.393 36.7447 134.538C35.9406 126.683 39.3254 121.731 41.956 121.462C45.9271 121.056 45.4631 127.013 46.2672 134.868Z" fill="#FFF8EE"/><path d="M33.1637 130.03C33.2627 130.997 32.7578 133.168 31.7147 133.204C30.4968 133.245 29.2441 132.054 29.0927 130.575C28.9413 129.096 30.0392 127.8 30.8864 127.713C32.1653 127.582 33.0123 128.551 33.1637 130.03Z" fill="#FFF8EE"/><path d="M33.8549 138.324C33.9677 139.425 33.4379 141.894 32.3152 141.927C31.0043 141.966 29.6481 140.603 29.4756 138.918C29.3032 137.233 30.4768 135.765 31.3883 135.672C32.7644 135.531 33.6824 136.639 33.8549 138.324Z" fill="#FFF8EE"/><path d="M37.5557 144.69C38.0283 145.55 38.4659 147.738 37.5863 148.14C36.5593 148.608 35.0087 147.949 34.286 146.633C33.5634 145.317 33.9845 143.73 34.6756 143.35C35.719 142.777 36.833 143.374 37.5557 144.69Z" fill="#FFF8EE"/><path d="M197 102.888C188.285 98.2948 160.633 76.1353 151.922 79.7819C149.747 82.7397 151.866 90.4527 156.825 102.3C163.025 117.11 186.747 140.965 204.555 146.82C222.363 152.675 246.695 150.68 250.666 135.708C253.843 123.731 247.799 111.455 239.599 110.005C229.28 108.182 206.743 108.024 197 102.888Z" fill="#AA80F9"/><path d="M228.217 126.98C228.224 131.674 225.921 142.034 229.801 141.685C234.332 141.278 238.514 134.936 238.503 127.757C238.492 120.578 233.921 114.899 230.747 114.904C225.956 114.911 228.206 119.801 228.217 126.98Z" fill="#FFF8EE"/><path d="M241.381 122.718C241.648 123.862 243.052 126.151 244.222 125.79C245.587 125.368 246.511 123.524 246.103 121.774C245.694 120.025 243.973 118.965 243.001 119.192C241.533 119.534 240.972 120.968 241.381 122.718Z" fill="#FFF8EE"/><path d="M241.654 130.418C241.439 131.574 241.807 134.234 243.023 134.373C244.442 134.535 246.029 133.218 246.358 131.451C246.687 129.685 245.536 128.023 244.555 127.84C243.073 127.564 241.983 128.652 241.654 130.418Z" fill="#FFF8EE"/><path d="M239.191 137.783C238.584 138.789 237.992 141.409 239.081 141.966C240.353 142.618 242.302 141.942 243.231 140.404C244.16 138.866 243.668 136.906 242.813 136.389C241.523 135.61 240.12 136.245 239.191 137.783Z" fill="#FFF8EE"/><path d="M206.358 199.031C198.873 194.041 185.582 178.176 177.077 179.601C174.526 181.778 160.272 206.624 162.21 218.191C164.633 232.651 190.199 246.849 204.81 255.768C224.926 268.048 244.834 265.62 253.203 249.917C258.526 239.931 257.17 221.19 250.182 218.191C241.388 214.418 223.379 210.379 206.358 199.031Z" fill="#AA80F9"/><path d="M227.228 235.27C225.48 240.348 224.298 252.258 228.181 253.18C232.715 254.256 239.132 248.8 241.805 241.034C244.479 233.268 242.181 225.598 239.109 224.54C234.472 222.944 229.901 227.504 227.228 235.27Z" fill="#FFF8EE"/><path d="M247.661 231.908C247.309 232.93 247.335 235.419 248.497 235.735C249.854 236.104 251.556 235.148 252.094 233.584C252.632 232.021 251.723 230.324 250.793 230.004C249.391 229.521 248.199 230.345 247.661 231.908Z" fill="#FFF8EE"/><path d="M245.037 241.174C244.688 242.189 244.72 244.662 245.881 244.979C247.237 245.349 248.936 244.401 249.471 242.849C250.005 241.297 249.093 239.608 248.163 239.288C246.761 238.805 245.572 239.622 245.037 241.174Z" fill="#FFF8EE"/><path d="M240.828 249.667C240.447 250.774 240.41 253.447 241.574 253.757C242.933 254.12 244.674 253.048 245.257 251.355C245.84 249.661 244.966 247.86 244.037 247.541C242.635 247.058 241.411 247.974 240.828 249.667Z" fill="#FFF8EE"/><path d="M69.6423 196.968C77.1272 191.978 90.4178 176.113 98.9234 177.538C101.474 179.714 115.728 204.56 113.79 216.128C111.367 230.588 85.801 244.786 71.1897 253.705C51.0739 265.984 31.1658 263.557 22.7965 247.854C17.4743 237.868 18.8298 219.127 25.8181 216.128C34.6119 212.355 52.6213 208.316 69.6423 196.968Z" fill="#AA80F9"/><path d="M48.772 233.207C50.5201 238.285 51.702 250.195 47.8186 251.117C43.2844 252.193 36.8681 246.737 34.1947 238.971C31.5212 231.205 33.8191 223.535 36.8906 222.477C41.5276 220.881 46.0985 225.441 48.772 233.207Z" fill="#FFF8EE"/><path d="M28.3389 229.845C28.6907 230.867 28.6646 233.356 27.5028 233.672C26.1464 234.041 24.4443 233.084 23.9062 231.521C23.3681 229.958 24.2774 228.26 25.2065 227.941C26.6092 227.458 27.8008 228.282 28.3389 229.845Z" fill="#FFF8EE"/><path d="M30.9625 239.111C31.3119 240.126 31.2804 242.599 30.1188 242.916C28.7626 243.286 27.0638 242.338 26.5294 240.786C25.995 239.234 26.9074 237.545 27.8365 237.225C29.2391 236.742 30.4281 237.559 30.9625 239.111Z" fill="#FFF8EE"/><path d="M35.1716 247.604C35.5528 248.711 35.5902 251.384 34.4262 251.694C33.0673 252.056 31.3257 250.985 30.7428 249.291C30.1598 247.598 31.0337 245.797 31.9628 245.477C33.3654 244.995 34.5887 245.911 35.1716 247.604Z" fill="#FFF8EE"/><path d="M200.299 162.555C204.398 190.455 201.407 209.96 192.861 222.787C184.471 235.381 170.003 242.58 148.513 244.268C105.478 245.116 85.0422 233.333 75.4864 217.154C65.5766 200.376 66.2233 177.243 69.4829 152.727C71.7893 135.38 78.0348 119.583 88.7743 107.767C99.442 96.0303 114.834 87.8939 136.149 86.2445C152.045 85.0145 166.408 93.3551 177.834 107.75C189.263 122.148 197.296 142.117 200.299 162.555Z" fill="#FFF8EE" stroke="#AA80F9" stroke-width="9.59142"/><ellipse cx="89.6126" cy="29.6043" rx="16.5907" ry="15.3209" transform="rotate(-4.4247 89.6126 29.6043)" fill="#AA80F9"/><ellipse cx="91.501" cy="31.7232" rx="13.0704" ry="12.07" transform="rotate(-4.4247 91.501 31.7232)" fill="#FFF8EE"/><ellipse cx="164.578" cy="18.4778" rx="15.5871" ry="15.3209" transform="rotate(-4.4247 164.578 18.4778)" fill="#AA80F9"/><ellipse cx="163.188" cy="21.7186" rx="11.706" ry="11.5061" transform="rotate(-4.4247 163.188 21.7186)" fill="#FFF8EE"/><path d="M183.978 51.0296C185.912 76.0238 166.001 97.6031 135.141 99.991C104.281 102.379 80.6675 88.5468 78.3738 58.9035C76.4397 33.9093 97.277 11.8669 128.137 9.47892C158.997 7.09097 182.044 26.0354 183.978 51.0296Z" fill="#AA80F9"/><path d="M150.774 72.9969C151.62 83.9313 141.362 93.6423 127.861 94.687C114.361 95.7316 102.73 87.7144 101.884 76.78C101.038 65.8456 109.086 59.8017 122.586 58.7571C136.087 57.7124 149.928 62.0625 150.774 72.9969Z" fill="#FFF8EE"/><path d="M121.852 72.3618C122.101 75.5777 119.084 78.4337 115.113 78.7409C111.142 79.0482 107.722 76.6903 107.473 73.4744C107.224 70.2586 109.722 69.6255 113.693 69.3182C117.663 69.011 121.603 69.146 121.852 72.3618Z" fill="black"/><ellipse rx="2.67867" ry="2.63293" transform="matrix(-0.99702 0.0771489 0.0771489 0.99702 141.271 53.8614)" fill="black"/><ellipse rx="2.67867" ry="2.63293" transform="matrix(-0.99702 0.0771489 0.0771489 0.99702 109.038 56.9506)" fill="black"/><rect x="55.5" y="106.5" width="171" height="141" rx="6.5" fill="white" stroke="#8859C2" stroke-width="3"/><g transform="translate(75, 110)scale(0.45)" fill="none"><svg width="300" height="300"><style>.background-color{ fill: transparent; }.dot-color{ fill: #ff0000; }.corners-square-color-0-0{ fill: #000000; }.corners-dot-color-0-0{ fill: #000000; }.corners-square-color-1-0{ fill: #000000; }.corners-dot-color-1-0{ fill: #000000; }.corners-square-color-0-1{ fill: #000000; }.corners-dot-color-0-1{ fill: #000000; }</style><defs/><g class="dot-color"><rect x="5" y="105" width="10" height="10" transform="rotate(0,10,110)"/><rect x="5" y="115" width="10" height="10" transform="rotate(0,10,120)"/><rect x="5" y="125" width="10" height="10" transform="rotate(0,10,130)"/><rect x="5" y="145" width="10" height="10" transform="rotate(0,10,150)"/><rect x="5" y="165" width="10" height="10" transform="rotate(0,10,170)"/><rect x="5" y="185" width="10" height="10" transform="rotate(0,10,190)"/><rect x="5" y="195" width="10" height="10" transform="rotate(0,10,200)"/><rect x="15" y="115" width="10" height="10" transform="rotate(0,20,120)"/><rect x="15" y="125" width="10" height="10" transform="rotate(0,20,130)"/><rect x="15" y="165" width="10" height="10" transform="rotate(0,20,170)"/><rect x="15" y="185" width="10" height="10" transform="rotate(0,20,190)"/><rect x="15" y="195" width="10" height="10" transform="rotate(0,20,200)"/><rect x="25" y="95" width="10" height="10" transform="rotate(0,30,100)"/><rect x="25" y="105" width="10" height="10" transform="rotate(0,30,110)"/><rect x="25" y="115" width="10" height="10" transform="rotate(0,30,120)"/><rect x="25" y="125" width="10" height="10" transform="rotate(0,30,130)"/><rect x="25" y="135" width="10" height="10" transform="rotate(0,30,140)"/><rect x="25" y="145" width="10" height="10" transform="rotate(0,30,150)"/><rect x="25" y="165" width="10" height="10" transform="rotate(0,30,170)"/><rect x="25" y="175" width="10" height="10" transform="rotate(0,30,180)"/><rect x="35" y="85" width="10" height="10" transform="rotate(0,40,90)"/><rect x="35" y="95" width="10" height="10" transform="rotate(0,40,100)"/><rect x="35" y="105" width="10" height="10" transform="rotate(0,40,110)"/><rect x="35" y="155" width="10" height="10" transform="rotate(0,40,160)"/><rect x="35" y="165" width="10" height="10" transform="rotate(0,40,170)"/><rect x="35" y="175" width="10" height="10" transform="rotate(0,40,180)"/><rect x="35" y="185" width="10" height="10" transform="rotate(0,40,190)"/><rect x="35" y="195" width="10" height="10" transform="rotate(0,40,200)"/><rect x="45" y="95" width="10" height="10" transform="rotate(0,50,100)"/><rect x="45" y="115" width="10" height="10" transform="rotate(0,50,120)"/><rect x="45" y="135" width="10" height="10" transform="rotate(0,50,140)"/><rect x="45" y="155" width="10" height="10" transform="rotate(0,50,160)"/><rect x="45" y="175" width="10" height="10" transform="rotate(0,50,180)"/><rect x="45" y="205" width="10" height="10" transform="rotate(0,50,210)"/><rect x="55" y="85" width="10" height="10" transform="rotate(0,60,90)"/><rect x="55" y="95" width="10" height="10" transform="rotate(0,60,100)"/><rect x="55" y="105" width="10" height="10" transform="rotate(0,60,110)"/><rect x="55" y="135" width="10" height="10" transform="rotate(0,60,140)"/><rect x="55" y="145" width="10" height="10" transform="rotate(0,60,150)"/><rect x="55" y="165" width="10" height="10" transform="rotate(0,60,170)"/><rect x="55" y="205" width="10" height="10" transform="rotate(0,60,210)"/><rect x="65" y="85" width="10" height="10" transform="rotate(0,70,90)"/><rect x="65" y="105" width="10" height="10" transform="rotate(0,70,110)"/><rect x="65" y="125" width="10" height="10" transform="rotate(0,70,130)"/><rect x="65" y="145" width="10" height="10" transform="rotate(0,70,150)"/><rect x="65" y="165" width="10" height="10" transform="rotate(0,70,170)"/><rect x="65" y="185" width="10" height="10" transform="rotate(0,70,190)"/><rect x="65" y="205" width="10" height="10" transform="rotate(0,70,210)"/><rect x="75" y="85" width="10" height="10" transform="rotate(0,80,90)"/><rect x="75" y="95" width="10" height="10" transform="rotate(0,80,100)"/><rect x="75" y="105" width="10" height="10" transform="rotate(0,80,110)"/><rect x="75" y="115" width="10" height="10" transform="rotate(0,80,120)"/><rect x="75" y="125" width="10" height="10" transform="rotate(0,80,130)"/><rect x="75" y="135" width="10" height="10" transform="rotate(0,80,140)"/><rect x="75" y="155" width="10" height="10" transform="rotate(0,80,160)"/><rect x="75" y="165" width="10" height="10" transform="rotate(0,80,170)"/><rect x="75" y="185" width="10" height="10" transform="rotate(0,80,190)"/><rect x="75" y="205" width="10" height="10" transform="rotate(0,80,210)"/><rect x="85" y="15" width="10" height="10" transform="rotate(0,90,20)"/><rect x="85" y="25" width="10" height="10" transform="rotate(0,90,30)"/><rect x="85" y="65" width="10" height="10" transform="rotate(0,90,70)"/><rect x="85" y="105" width="10" height="10" transform="rotate(0,90,110)"/><rect x="85" y="115" width="10" height="10" transform="rotate(0,90,120)"/><rect x="85" y="125" width="10" height="10" transform="rotate(0,90,130)"/><rect x="85" y="135" width="10" height="10" transform="rotate(0,90,140)"/><rect x="85" y="155" width="10" height="10" transform="rotate(0,90,160)"/><rect x="85" y="165" width="10" height="10" transform="rotate(0,90,170)"/><rect x="85" y="175" width="10" height="10" transform="rotate(0,90,180)"/><rect x="85" y="185" width="10" height="10" transform="rotate(0,90,190)"/><rect x="85" y="195" width="10" height="10" transform="rotate(0,90,200)"/><rect x="85" y="205" width="10" height="10" transform="rotate(0,90,210)"/><rect x="85" y="225" width="10" height="10" transform="rotate(0,90,230)"/><rect x="85" y="235" width="10" height="10" transform="rotate(0,90,240)"/><rect x="85" y="255" width="10" height="10" transform="rotate(0,90,260)"/><rect x="95" y="5" width="10" height="10" transform="rotate(0,100,10)"/><rect x="95" y="25" width="10" height="10" transform="rotate(0,100,30)"/><rect x="95" y="35" width="10" height="10" transform="rotate(0,100,40)"/><rect x="95" y="45" width="10" height="10" transform="rotate(0,100,50)"/><rect x="95" y="75" width="10" height="10" transform="rotate(0,100,80)"/><rect x="95" y="95" width="10" height="10" transform="rotate(0,100,100)"/><rect x="95" y="145" width="10" height="10" transform="rotate(0,100,150)"/><rect x="95" y="185" width="10" height="10" transform="rotate(0,100,190)"/><rect x="95" y="215" width="10" height="10" transform="rotate(0,100,220)"/><rect x="95" y="225" width="10" height="10" transform="rotate(0,100,230)"/><rect x="95" y="235" width="10" height="10" transform="rotate(0,100,240)"/><rect x="95" y="255" width="10" height="10" transform="rotate(0,100,260)"/><rect x="95" y="265" width="10" height="10" transform="rotate(0,100,270)"/><rect x="95" y="275" width="10" height="10" transform="rotate(0,100,280)"/><rect x="95" y="285" width="10" height="10" transform="rotate(0,100,290)"/><rect x="105" y="25" width="10" height="10" transform="rotate(0,110,30)"/><rect x="105" y="45" width="10" height="10" transform="rotate(0,110,50)"/><rect x="105" y="65" width="10" height="10" transform="rotate(0,110,70)"/><rect x="105" y="95" width="10" height="10" transform="rotate(0,110,100)"/><rect x="105" y="125" width="10" height="10" transform="rotate(0,110,130)"/><rect x="105" y="165" width="10" height="10" transform="rotate(0,110,170)"/><rect x="105" y="175" width="10" height="10" transform="rotate(0,110,180)"/><rect x="105" y="185" width="10" height="10" transform="rotate(0,110,190)"/><rect x="105" y="195" width="10" height="10" transform="rotate(0,110,200)"/><rect x="105" y="205" width="10" height="10" transform="rotate(0,110,210)"/><rect x="105" y="215" width="10" height="10" transform="rotate(0,110,220)"/><rect x="105" y="235" width="10" height="10" transform="rotate(0,110,240)"/><rect x="105" y="245" width="10" height="10" transform="rotate(0,110,250)"/><rect x="105" y="285" width="10" height="10" transform="rotate(0,110,290)"/><rect x="115" y="15" width="10" height="10" transform="rotate(0,120,20)"/><rect x="115" y="25" width="10" height="10" transform="rotate(0,120,30)"/><rect x="115" y="105" width="10" height="10" transform="rotate(0,120,110)"/><rect x="115" y="115" width="10" height="10" transform="rotate(0,120,120)"/><rect x="115" y="135" width="10" height="10" transform="rotate(0,120,140)"/><rect x="115" y="185" width="10" height="10" transform="rotate(0,120,190)"/><rect x="115" y="205" width="10" height="10" transform="rotate(0,120,210)"/><rect x="115" y="225" width="10" height="10" transform="rotate(0,120,230)"/><rect x="115" y="235" width="10" height="10" transform="rotate(0,120,240)"/><rect x="115" y="245" width="10" height="10" transform="rotate(0,120,250)"/><rect x="115" y="255" width="10" height="10" transform="rotate(0,120,260)"/><rect x="125" y="25" width="10" height="10" transform="rotate(0,130,30)"/><rect x="125" y="35" width="10" height="10" transform="rotate(0,130,40)"/><rect x="125" y="55" width="10" height="10" transform="rotate(0,130,60)"/><rect x="125" y="65" width="10" height="10" transform="rotate(0,130,70)"/><rect x="125" y="85" width="10" height="10" transform="rotate(0,130,90)"/><rect x="125" y="95" width="10" height="10" transform="rotate(0,130,100)"/><rect x="125" y="105" width="10" height="10" transform="rotate(0,130,110)"/><rect x="125" y="135" width="10" height="10" transform="rotate(0,130,140)"/><rect x="125" y="145" width="10" height="10" transform="rotate(0,130,150)"/><rect x="125" y="205" width="10" height="10" transform="rotate(0,130,210)"/><rect x="125" y="215" width="10" height="10" transform="rotate(0,130,220)"/><rect x="125" y="225" width="10" height="10" transform="rotate(0,130,230)"/><rect x="125" y="275" width="10" height="10" transform="rotate(0,130,280)"/><rect x="135" y="5" width="10" height="10" transform="rotate(0,140,10)"/><rect x="135" y="25" width="10" height="10" transform="rotate(0,140,30)"/><rect x="135" y="45" width="10" height="10" transform="rotate(0,140,50)"/><rect x="135" y="55" width="10" height="10" transform="rotate(0,140,60)"/><rect x="135" y="95" width="10" height="10" transform="rotate(0,140,100)"/><rect x="135" y="125" width="10" height="10" transform="rotate(0,140,130)"/><rect x="135" y="145" width="10" height="10" transform="rotate(0,140,150)"/><rect x="135" y="165" width="10" height="10" transform="rotate(0,140,170)"/><rect x="135" y="175" width="10" height="10" transform="rotate(0,140,180)"/><rect x="135" y="185" width="10" height="10" transform="rotate(0,140,190)"/><rect x="135" y="195" width="10" height="10" transform="rotate(0,140,200)"/><rect x="135" y="205" width="10" height="10" transform="rotate(0,140,210)"/><rect x="135" y="225" width="10" height="10" transform="rotate(0,140,230)"/><rect x="135" y="255" width="10" height="10" transform="rotate(0,140,260)"/><rect x="135" y="285" width="10" height="10" transform="rotate(0,140,290)"/><rect x="145" y="5" width="10" height="10" transform="rotate(0,150,10)"/><rect x="145" y="55" width="10" height="10" transform="rotate(0,150,60)"/><rect x="145" y="65" width="10" height="10" transform="rotate(0,150,70)"/><rect x="145" y="125" width="10" height="10" transform="rotate(0,150,130)"/><rect x="145" y="135" width="10" height="10" transform="rotate(0,150,140)"/><rect x="145" y="145" width="10" height="10" transform="rotate(0,150,150)"/><rect x="145" y="155" width="10" height="10" transform="rotate(0,150,160)"/><rect x="145" y="165" width="10" height="10" transform="rotate(0,150,170)"/><rect x="145" y="195" width="10" height="10" transform="rotate(0,150,200)"/><rect x="145" y="215" width="10" height="10" transform="rotate(0,150,220)"/><rect x="145" y="225" width="10" height="10" transform="rotate(0,150,230)"/><rect x="145" y="255" width="10" height="10" transform="rotate(0,150,260)"/><rect x="145" y="265" width="10" height="10" transform="rotate(0,150,270)"/><rect x="145" y="275" width="10" height="10" transform="rotate(0,150,280)"/><rect x="145" y="285" width="10" height="10" transform="rotate(0,150,290)"/><rect x="155" y="35" width="10" height="10" transform="rotate(0,160,40)"/><rect x="155" y="55" width="10" height="10" transform="rotate(0,160,60)"/><rect x="155" y="75" width="10" height="10" transform="rotate(0,160,80)"/><rect x="155" y="85" width="10" height="10" transform="rotate(0,160,90)"/><rect x="155" y="105" width="10" height="10" transform="rotate(0,160,110)"/><rect x="155" y="135" width="10" height="10" transform="rotate(0,160,140)"/><rect x="155" y="145" width="10" height="10" transform="rotate(0,160,150)"/><rect x="155" y="155" width="10" height="10" transform="rotate(0,160,160)"/><rect x="155" y="175" width="10" height="10" transform="rotate(0,160,180)"/><rect x="155" y="205" width="10" height="10" transform="rotate(0,160,210)"/><rect x="155" y="225" width="10" height="10" transform="rotate(0,160,230)"/><rect x="155" y="255" width="10" height="10" transform="rotate(0,160,260)"/><rect x="155" y="275" width="10" height="10" transform="rotate(0,160,280)"/><rect x="165" y="5" width="10" height="10" transform="rotate(0,170,10)"/><rect x="165" y="15" width="10" height="10" transform="rotate(0,170,20)"/><rect x="165" y="25" width="10" height="10" transform="rotate(0,170,30)"/><rect x="165" y="45" width="10" height="10" transform="rotate(0,170,50)"/><rect x="165" y="55" width="10" height="10" transform="rotate(0,170,60)"/><rect x="165" y="65" width="10" height="10" transform="rotate(0,170,70)"/><rect x="165" y="125" width="10" height="10" transform="rotate(0,170,130)"/><rect x="165" y="135" width="10" height="10" transform="rotate(0,170,140)"/><rect x="165" y="175" width="10" height="10" transform="rotate(0,170,180)"/><rect x="165" y="205" width="10" height="10" transform="rotate(0,170,210)"/><rect x="165" y="225" width="10" height="10" transform="rotate(0,170,230)"/><rect x="165" y="235" width="10" height="10" transform="rotate(0,170,240)"/><rect x="165" y="245" width="10" height="10" transform="rotate(0,170,250)"/><rect x="175" y="15" width="10" height="10" transform="rotate(0,180,20)"/><rect x="175" y="25" width="10" height="10" transform="rotate(0,180,30)"/><rect x="175" y="35" width="10" height="10" transform="rotate(0,180,40)"/><rect x="175" y="45" width="10" height="10" transform="rotate(0,180,50)"/><rect x="175" y="75" width="10" height="10" transform="rotate(0,180,80)"/><rect x="175" y="115" width="10" height="10" transform="rotate(0,180,120)"/><rect x="175" y="205" width="10" height="10" transform="rotate(0,180,210)"/><rect x="175" y="215" width="10" height="10" transform="rotate(0,180,220)"/><rect x="175" y="235" width="10" height="10" transform="rotate(0,180,240)"/><rect x="175" y="265" width="10" height="10" transform="rotate(0,180,270)"/><rect x="175" y="285" width="10" height="10" transform="rotate(0,180,290)"/><rect x="185" y="5" width="10" height="10" transform="rotate(0,190,10)"/><rect x="185" y="15" width="10" height="10" transform="rotate(0,190,20)"/><rect x="185" y="25" width="10" height="10" transform="rotate(0,190,30)"/><rect x="185" y="45" width="10" height="10" transform="rotate(0,190,50)"/><rect x="185" y="55" width="10" height="10" transform="rotate(0,190,60)"/><rect x="185" y="65" width="10" height="10" transform="rotate(0,190,70)"/><rect x="185" y="75" width="10" height="10" transform="rotate(0,190,80)"/><rect x="185" y="115" width="10" height="10" transform="rotate(0,190,120)"/><rect x="185" y="145" width="10" height="10" transform="rotate(0,190,150)"/><rect x="185" y="155" width="10" height="10" transform="rotate(0,190,160)"/><rect x="185" y="185" width="10" height="10" transform="rotate(0,190,190)"/><rect x="185" y="195" width="10" height="10" transform="rotate(0,190,200)"/><rect x="185" y="205" width="10" height="10" transform="rotate(0,190,210)"/><rect x="185" y="245" width="10" height="10" transform="rotate(0,190,250)"/><rect x="185" y="265" width="10" height="10" transform="rotate(0,190,270)"/><rect x="185" y="285" width="10" height="10" transform="rotate(0,190,290)"/><rect x="195" y="55" width="10" height="10" transform="rotate(0,200,60)"/><rect x="195" y="75" width="10" height="10" transform="rotate(0,200,80)"/><rect x="195" y="85" width="10" height="10" transform="rotate(0,200,90)"/><rect x="195" y="95" width="10" height="10" transform="rotate(0,200,100)"/><rect x="195" y="105" width="10" height="10" transform="rotate(0,200,110)"/><rect x="195" y="115" width="10" height="10" transform="rotate(0,200,120)"/><rect x="195" y="125" width="10" height="10" transform="rotate(0,200,130)"/><rect x="195" y="135" width="10" height="10" transform="rotate(0,200,140)"/><rect x="195" y="195" width="10" height="10" transform="rotate(0,200,200)"/><rect x="195" y="205" width="10" height="10" transform="rotate(0,200,210)"/><rect x="195" y="215" width="10" height="10" transform="rotate(0,200,220)"/><rect x="195" y="225" width="10" height="10" transform="rotate(0,200,230)"/><rect x="195" y="245" width="10" height="10" transform="rotate(0,200,250)"/><rect x="195" y="285" width="10" height="10" transform="rotate(0,200,290)"/><rect x="205" y="5" width="10" height="10" transform="rotate(0,210,10)"/><rect x="205" y="15" width="10" height="10" transform="rotate(0,210,20)"/><rect x="205" y="25" width="10" height="10" transform="rotate(0,210,30)"/><rect x="205" y="35" width="10" height="10" transform="rotate(0,210,40)"/><rect x="205" y="65" width="10" height="10" transform="rotate(0,210,70)"/><rect x="205" y="75" width="10" height="10" transform="rotate(0,210,80)"/><rect x="205" y="95" width="10" height="10" transform="rotate(0,210,100)"/><rect x="205" y="125" width="10" height="10" transform="rotate(0,210,130)"/><rect x="205" y="135" width="10" height="10" transform="rotate(0,210,140)"/><rect x="205" y="155" width="10" height="10" transform="rotate(0,210,160)"/><rect x="205" y="165" width="10" height="10" transform="rotate(0,210,170)"/><rect x="205" y="185" width="10" height="10" transform="rotate(0,210,190)"/><rect x="205" y="195" width="10" height="10" transform="rotate(0,210,200)"/><rect x="205" y="205" width="10" height="10" transform="rotate(0,210,210)"/><rect x="205" y="215" width="10" height="10" transform="rotate(0,210,220)"/><rect x="205" y="225" width="10" height="10" transform="rotate(0,210,230)"/><rect x="205" y="235" width="10" height="10" transform="rotate(0,210,240)"/><rect x="205" y="245" width="10" height="10" transform="rotate(0,210,250)"/><rect x="205" y="275" width="10" height="10" transform="rotate(0,210,280)"/><rect x="215" y="85" width="10" height="10" transform="rotate(0,220,90)"/><rect x="215" y="105" width="10" height="10" transform="rotate(0,220,110)"/><rect x="215" y="135" width="10" height="10" transform="rotate(0,220,140)"/><rect x="215" y="155" width="10" height="10" transform="rotate(0,220,160)"/><rect x="215" y="165" width="10" height="10" transform="rotate(0,220,170)"/><rect x="215" y="205" width="10" height="10" transform="rotate(0,220,210)"/><rect x="215" y="245" width="10" height="10" transform="rotate(0,220,250)"/><rect x="215" y="255" width="10" height="10" transform="rotate(0,220,260)"/><rect x="215" y="285" width="10" height="10" transform="rotate(0,220,290)"/><rect x="225" y="95" width="10" height="10" transform="rotate(0,230,100)"/><rect x="225" y="115" width="10" height="10" transform="rotate(0,230,120)"/><rect x="225" y="135" width="10" height="10" transform="rotate(0,230,140)"/><rect x="225" y="145" width="10" height="10" transform="rotate(0,230,150)"/><rect x="225" y="155" width="10" height="10" transform="rotate(0,230,160)"/><rect x="225" y="175" width="10" height="10" transform="rotate(0,230,180)"/><rect x="225" y="185" width="10" height="10" transform="rotate(0,230,190)"/><rect x="225" y="205" width="10" height="10" transform="rotate(0,230,210)"/><rect x="225" y="225" width="10" height="10" transform="rotate(0,230,230)"/><rect x="225" y="245" width="10" height="10" transform="rotate(0,230,250)"/><rect x="225" y="255" width="10" height="10" transform="rotate(0,230,260)"/><rect x="225" y="265" width="10" height="10" transform="rotate(0,230,270)"/><rect x="225" y="285" width="10" height="10" transform="rotate(0,230,290)"/><rect x="235" y="125" width="10" height="10" transform="rotate(0,240,130)"/><rect x="235" y="135" width="10" height="10" transform="rotate(0,240,140)"/><rect x="235" y="145" width="10" height="10" transform="rotate(0,240,150)"/><rect x="235" y="155" width="10" height="10" transform="rotate(0,240,160)"/><rect x="235" y="185" width="10" height="10" transform="rotate(0,240,190)"/><rect x="235" y="195" width="10" height="10" transform="rotate(0,240,200)"/><rect x="235" y="205" width="10" height="10" transform="rotate(0,240,210)"/><rect x="235" y="245" width="10" height="10" transform="rotate(0,240,250)"/><rect x="235" y="255" width="10" height="10" transform="rotate(0,240,260)"/><rect x="235" y="275" width="10" height="10" transform="rotate(0,240,280)"/><rect x="235" y="285" width="10" height="10" transform="rotate(0,240,290)"/><rect x="245" y="105" width="10" height="10" transform="rotate(0,250,110)"/><rect x="245" y="135" width="10" height="10" transform="rotate(0,250,140)"/><rect x="245" y="145" width="10" height="10" transform="rotate(0,250,150)"/><rect x="245" y="155" width="10" height="10" transform="rotate(0,250,160)"/><rect x="245" y="165" width="10" height="10" transform="rotate(0,250,170)"/><rect x="245" y="175" width="10" height="10" transform="rotate(0,250,180)"/><rect x="245" y="185" width="10" height="10" transform="rotate(0,250,190)"/><rect x="245" y="195" width="10" height="10" transform="rotate(0,250,200)"/><rect x="245" y="205" width="10" height="10" transform="rotate(0,250,210)"/><rect x="245" y="215" width="10" height="10" transform="rotate(0,250,220)"/><rect x="245" y="225" width="10" height="10" transform="rotate(0,250,230)"/><rect x="245" y="235" width="10" height="10" transform="rotate(0,250,240)"/><rect x="245" y="245" width="10" height="10" transform="rotate(0,250,250)"/><rect x="255" y="115" width="10" height="10" transform="rotate(0,260,120)"/><rect x="255" y="165" width="10" height="10" transform="rotate(0,260,170)"/><rect x="255" y="175" width="10" height="10" transform="rotate(0,260,180)"/><rect x="255" y="185" width="10" height="10" transform="rotate(0,260,190)"/><rect x="255" y="195" width="10" height="10" transform="rotate(0,260,200)"/><rect x="255" y="205" width="10" height="10" transform="rotate(0,260,210)"/><rect x="255" y="235" width="10" height="10" transform="rotate(0,260,240)"/><rect x="255" y="245" width="10" height="10" transform="rotate(0,260,250)"/><rect x="255" y="275" width="10" height="10" transform="rotate(0,260,280)"/><rect x="265" y="85" width="10" height="10" transform="rotate(0,270,90)"/><rect x="265" y="105" width="10" height="10" transform="rotate(0,270,110)"/><rect x="265" y="125" width="10" height="10" transform="rotate(0,270,130)"/><rect x="265" y="165" width="10" height="10" transform="rotate(0,270,170)"/><rect x="265" y="215" width="10" height="10" transform="rotate(0,270,220)"/><rect x="265" y="245" width="10" height="10" transform="rotate(0,270,250)"/><rect x="265" y="255" width="10" height="10" transform="rotate(0,270,260)"/><rect x="265" y="275" width="10" height="10" transform="rotate(0,270,280)"/><rect x="265" y="285" width="10" height="10" transform="rotate(0,270,290)"/><rect x="275" y="85" width="10" height="10" transform="rotate(0,280,90)"/><rect x="275" y="105" width="10" height="10" transform="rotate(0,280,110)"/><rect x="275" y="115" width="10" height="10" transform="rotate(0,280,120)"/><rect x="275" y="125" width="10" height="10" transform="rotate(0,280,130)"/><rect x="275" y="145" width="10" height="10" transform="rotate(0,280,150)"/><rect x="275" y="155" width="10" height="10" transform="rotate(0,280,160)"/><rect x="275" y="165" width="10" height="10" transform="rotate(0,280,170)"/><rect x="275" y="195" width="10" height="10" transform="rotate(0,280,200)"/><rect x="275" y="215" width="10" height="10" transform="rotate(0,280,220)"/><rect x="275" y="255" width="10" height="10" transform="rotate(0,280,260)"/><rect x="285" y="135" width="10" height="10" transform="rotate(0,290,140)"/><rect x="285" y="165" width="10" height="10" transform="rotate(0,290,170)"/><rect x="285" y="205" width="10" height="10" transform="rotate(0,290,210)"/><rect x="285" y="215" width="10" height="10" transform="rotate(0,290,220)"/><rect x="285" y="225" width="10" height="10" transform="rotate(0,290,230)"/><rect x="285" y="235" width="10" height="10" transform="rotate(0,290,240)"/><rect x="285" y="245" width="10" height="10" transform="rotate(0,290,250)"/><rect x="285" y="285" width="10" height="10" transform="rotate(0,290,290)"/></g><g class="corners-square-color-0-0"><rect x="5" y="5" width="10" height="10" transform="rotate(0,10,10)"/><rect x="5" y="15" width="10" height="10" transform="rotate(0,10,20)"/><rect x="5" y="25" width="10" height="10" transform="rotate(0,10,30)"/><rect x="5" y="35" width="10" height="10" transform="rotate(0,10,40)"/><rect x="5" y="45" width="10" height="10" transform="rotate(0,10,50)"/><rect x="5" y="55" width="10" height="10" transform="rotate(0,10,60)"/><rect x="5" y="65" width="10" height="10" transform="rotate(0,10,70)"/><rect x="15" y="5" width="10" height="10" transform="rotate(0,20,10)"/><rect x="15" y="65" width="10" height="10" transform="rotate(0,20,70)"/><rect x="25" y="5" width="10" height="10" transform="rotate(0,30,10)"/><rect x="25" y="65" width="10" height="10" transform="rotate(0,30,70)"/><rect x="35" y="5" width="10" height="10" transform="rotate(0,40,10)"/><rect x="35" y="65" width="10" height="10" transform="rotate(0,40,70)"/><rect x="45" y="5" width="10" height="10" transform="rotate(0,50,10)"/><rect x="45" y="65" width="10" height="10" transform="rotate(0,50,70)"/><rect x="55" y="5" width="10" height="10" transform="rotate(0,60,10)"/><rect x="55" y="65" width="10" height="10" transform="rotate(0,60,70)"/><rect x="65" y="5" width="10" height="10" transform="rotate(0,70,10)"/><rect x="65" y="15" width="10" height="10" transform="rotate(0,70,20)"/><rect x="65" y="25" width="10" height="10" transform="rotate(0,70,30)"/><rect x="65" y="35" width="10" height="10" transform="rotate(0,70,40)"/><rect x="65" y="45" width="10" height="10" transform="rotate(0,70,50)"/><rect x="65" y="55" width="10" height="10" transform="rotate(0,70,60)"/><rect x="65" y="65" width="10" height="10" transform="rotate(0,70,70)"/></g><g class="corners-dot-color-0-0"><rect x="25" y="25" width="10" height="10" transform="rotate(0,30,30)"/><rect x="25" y="35" width="10" height="10" transform="rotate(0,30,40)"/><rect x="25" y="45" width="10" height="10" transform="rotate(0,30,50)"/><rect x="35" y="25" width="10" height="10" transform="rotate(0,40,30)"/><rect x="35" y="35" width="10" height="10" transform="rotate(0,40,40)"/><rect x="35" y="45" width="10" height="10" transform="rotate(0,40,50)"/><rect x="45" y="25" width="10" height="10" transform="rotate(0,50,30)"/><rect x="45" y="35" width="10" height="10" transform="rotate(0,50,40)"/><rect x="45" y="45" width="10" height="10" transform="rotate(0,50,50)"/></g><g class="corners-square-color-1-0"><rect x="225" y="5" width="10" height="10" transform="rotate(0,230,10)"/><rect x="225" y="15" width="10" height="10" transform="rotate(0,230,20)"/><rect x="225" y="25" width="10" height="10" transform="rotate(0,230,30)"/><rect x="225" y="35" width="10" height="10" transform="rotate(0,230,40)"/><rect x="225" y="45" width="10" height="10" transform="rotate(0,230,50)"/><rect x="225" y="55" width="10" height="10" transform="rotate(0,230,60)"/><rect x="225" y="65" width="10" height="10" transform="rotate(0,230,70)"/><rect x="235" y="5" width="10" height="10" transform="rotate(0,240,10)"/><rect x="235" y="65" width="10" height="10" transform="rotate(0,240,70)"/><rect x="245" y="5" width="10" height="10" transform="rotate(0,250,10)"/><rect x="245" y="65" width="10" height="10" transform="rotate(0,250,70)"/><rect x="255" y="5" width="10" height="10" transform="rotate(0,260,10)"/><rect x="255" y="65" width="10" height="10" transform="rotate(0,260,70)"/><rect x="265" y="5" width="10" height="10" transform="rotate(0,270,10)"/><rect x="265" y="65" width="10" height="10" transform="rotate(0,270,70)"/><rect x="275" y="5" width="10" height="10" transform="rotate(0,280,10)"/><rect x="275" y="65" width="10" height="10" transform="rotate(0,280,70)"/><rect x="285" y="5" width="10" height="10" transform="rotate(0,290,10)"/><rect x="285" y="15" width="10" height="10" transform="rotate(0,290,20)"/><rect x="285" y="25" width="10" height="10" transform="rotate(0,290,30)"/><rect x="285" y="35" width="10" height="10" transform="rotate(0,290,40)"/><rect x="285" y="45" width="10" height="10" transform="rotate(0,290,50)"/><rect x="285" y="55" width="10" height="10" transform="rotate(0,290,60)"/><rect x="285" y="65" width="10" height="10" transform="rotate(0,290,70)"/></g><g class="corners-dot-color-1-0"><rect x="245" y="25" width="10" height="10" transform="rotate(0,250,30)"/><rect x="245" y="35" width="10" height="10" transform="rotate(0,250,40)"/><rect x="245" y="45" width="10" height="10" transform="rotate(0,250,50)"/><rect x="255" y="25" width="10" height="10" transform="rotate(0,260,30)"/><rect x="255" y="35" width="10" height="10" transform="rotate(0,260,40)"/><rect x="255" y="45" width="10" height="10" transform="rotate(0,260,50)"/><rect x="265" y="25" width="10" height="10" transform="rotate(0,270,30)"/><rect x="265" y="35" width="10" height="10" transform="rotate(0,270,40)"/><rect x="265" y="45" width="10" height="10" transform="rotate(0,270,50)"/></g><g class="corners-square-color-0-1"><rect x="5" y="225" width="10" height="10" transform="rotate(0,10,230)"/><rect x="5" y="235" width="10" height="10" transform="rotate(0,10,240)"/><rect x="5" y="245" width="10" height="10" transform="rotate(0,10,250)"/><rect x="5" y="255" width="10" height="10" transform="rotate(0,10,260)"/><rect x="5" y="265" width="10" height="10" transform="rotate(0,10,270)"/><rect x="5" y="275" width="10" height="10" transform="rotate(0,10,280)"/><rect x="5" y="285" width="10" height="10" transform="rotate(0,10,290)"/><rect x="15" y="225" width="10" height="10" transform="rotate(0,20,230)"/><rect x="15" y="285" width="10" height="10" transform="rotate(0,20,290)"/><rect x="25" y="225" width="10" height="10" transform="rotate(0,30,230)"/><rect x="25" y="285" width="10" height="10" transform="rotate(0,30,290)"/><rect x="35" y="225" width="10" height="10" transform="rotate(0,40,230)"/><rect x="35" y="285" width="10" height="10" transform="rotate(0,40,290)"/><rect x="45" y="225" width="10" height="10" transform="rotate(0,50,230)"/><rect x="45" y="285" width="10" height="10" transform="rotate(0,50,290)"/><rect x="55" y="225" width="10" height="10" transform="rotate(0,60,230)"/><rect x="55" y="285" width="10" height="10" transform="rotate(0,60,290)"/><rect x="65" y="225" width="10" height="10" transform="rotate(0,70,230)"/><rect x="65" y="235" width="10" height="10" transform="rotate(0,70,240)"/><rect x="65" y="245" width="10" height="10" transform="rotate(0,70,250)"/><rect x="65" y="255" width="10" height="10" transform="rotate(0,70,260)"/><rect x="65" y="265" width="10" height="10" transform="rotate(0,70,270)"/><rect x="65" y="275" width="10" height="10" transform="rotate(0,70,280)"/><rect x="65" y="285" width="10" height="10" transform="rotate(0,70,290)"/></g><g class="corners-dot-color-0-1"><rect x="25" y="245" width="10" height="10" transform="rotate(0,30,250)"/><rect x="25" y="255" width="10" height="10" transform="rotate(0,30,260)"/><rect x="25" y="265" width="10" height="10" transform="rotate(0,30,270)"/><rect x="35" y="245" width="10" height="10" transform="rotate(0,40,250)"/><rect x="35" y="255" width="10" height="10" transform="rotate(0,40,260)"/><rect x="35" y="265" width="10" height="10" transform="rotate(0,40,270)"/><rect x="45" y="245" width="10" height="10" transform="rotate(0,50,250)"/><rect x="45" y="255" width="10" height="10" transform="rotate(0,50,260)"/><rect x="45" y="265" width="10" height="10" transform="rotate(0,50,270)"/></g></svg></g></g></svg></svg>